<svg width="47" height="50" viewBox="0 0 47 50" fill="none" xmlns="http://www.w3.org/2000/svg">
<path d="M42.8113 28.1618C40.6821 26.0162 37.7485 24.697 34.5153 24.697C31.2821 24.697 28.3485 26.0162 26.2193 28.1618C24.0901 30.3074 22.7968 33.2636 22.7968 36.5376C22.7968 39.8116 24.1059 42.7678 26.2193 44.9134C28.3327 47.059 31.2821 48.3782 34.4995 48.3782H34.5311C37.7643 48.3782 40.6979 47.059 42.8113 44.9134C44.9247 42.7678 46.2495 39.7957 46.2495 36.5376C46.2495 33.2795 44.9247 30.2915 42.8113 28.1618ZM37.4331 42.0208C36.9915 42.434 36.4237 42.7519 35.8244 42.9426V44.1029C35.8244 44.834 35.2408 45.422 34.5153 45.422C33.7898 45.422 33.1905 44.834 33.1905 44.1029V42.9267C32.7804 42.7996 32.4019 42.6089 32.0549 42.3705C31.3294 41.8619 30.7616 41.1467 30.5092 40.3202C30.2884 39.6209 30.6512 38.8898 31.3451 38.6673C32.0233 38.4448 32.7646 38.8104 33.0012 39.5097C33.0801 39.7799 33.2693 40.0183 33.5217 40.1931C33.7898 40.3679 34.0894 40.4633 34.4364 40.4792H34.6099C35.0358 40.4633 35.4301 40.3043 35.6982 40.05C35.9663 39.8116 36.124 39.5097 36.124 39.1759C36.124 38.8421 35.9663 38.5243 35.6982 38.3018C35.4143 38.0316 35.0042 37.8726 34.5311 37.8726C33.3955 37.8726 32.3703 37.4435 31.6133 36.7601C30.8247 36.0449 30.3357 35.0277 30.3357 33.9152C30.3357 32.8027 30.8247 31.8014 31.6133 31.0862C32.0549 30.6729 32.6227 30.3551 33.2378 30.1643V28.9882C33.2378 28.2571 33.8213 27.6691 34.5468 27.6691C35.2723 27.6691 35.8559 28.2571 35.8559 28.9882V30.1643C36.2817 30.2915 36.676 30.4822 37.0388 30.7365C37.7643 31.2451 38.3321 31.9762 38.5844 32.8185C38.8052 33.5179 38.4109 34.249 37.7327 34.4715C37.0388 34.694 36.2975 34.2966 36.0925 33.5973C36.0136 33.3271 35.8244 33.0887 35.5562 32.9139C35.2881 32.7232 34.9411 32.6119 34.5468 32.6119C34.0894 32.6119 33.6636 32.7709 33.3797 33.0411C33.1116 33.2795 32.9539 33.5814 32.9539 33.9152C32.9539 34.2489 33.1116 34.5668 33.3797 34.7893C33.6636 35.0595 34.0894 35.2184 34.5468 35.2184C35.6666 35.2184 36.7076 35.6476 37.4646 36.331C38.2532 37.0462 38.7421 38.0634 38.7421 39.1759C38.7421 40.2884 38.269 41.2897 37.4646 42.0208H37.4331Z" fill="#EC7338"/>
<path d="M11.0468 37.094H6.99342C6.45337 37.094 6.01556 37.5352 6.01556 38.0794V42.164C6.01556 42.7082 6.45337 43.1494 6.99342 43.1494H11.0468C11.5868 43.1494 12.0246 42.7082 12.0246 42.164V38.0794C12.0246 37.5352 11.5868 37.094 11.0468 37.094Z" fill="#2990AB"/>
<path d="M20.8095 37.094H16.7561C16.2161 37.094 15.7783 37.5352 15.7783 38.0794V42.164C15.7783 42.7082 16.2161 43.1494 16.7561 43.1494H20.8095C21.3496 43.1494 21.7874 42.7082 21.7874 42.164V38.0794C21.7874 37.5352 21.3496 37.094 20.8095 37.094Z" fill="#2990AB"/>
<path d="M11.0468 27.4624H6.99342C6.45337 27.4624 6.01556 27.9036 6.01556 28.4478V32.5324C6.01556 33.0766 6.45337 33.5178 6.99342 33.5178H11.0468C11.5868 33.5178 12.0246 33.0766 12.0246 32.5324V28.4478C12.0246 27.9036 11.5868 27.4624 11.0468 27.4624Z" fill="#2990AB"/>
<path d="M20.8095 27.4624H16.7561C16.2161 27.4624 15.7783 27.9036 15.7783 28.4478V32.5324C15.7783 33.0766 16.2161 33.5178 16.7561 33.5178H20.8095C21.3496 33.5178 21.7874 33.0766 21.7874 32.5324V28.4478C21.7874 27.9036 21.3496 27.4624 20.8095 27.4624Z" fill="#2990AB"/>
<path d="M11.0468 17.8311H6.99342C6.45337 17.8311 6.01556 18.2722 6.01556 18.8164V22.901C6.01556 23.4453 6.45337 23.8864 6.99342 23.8864H11.0468C11.5868 23.8864 12.0246 23.4453 12.0246 22.901V18.8164C12.0246 18.2722 11.5868 17.8311 11.0468 17.8311Z" fill="#2990AB"/>
<path d="M20.8095 17.8311H16.7561C16.2161 17.8311 15.7783 18.2722 15.7783 18.8164V22.901C15.7783 23.4453 16.2161 23.8864 16.7561 23.8864H20.8095C21.3496 23.8864 21.7874 23.4453 21.7874 22.901V18.8164C21.7874 18.2722 21.3496 17.8311 20.8095 17.8311Z" fill="#2990AB"/>
<path d="M30.73 17.8311H26.6766C26.1365 17.8311 25.6987 18.2722 25.6987 18.8164V22.901C25.6987 23.4453 26.1365 23.8864 26.6766 23.8864H30.73C31.27 23.8864 31.7078 23.4453 31.7078 22.901V18.8164C31.7078 18.2722 31.27 17.8311 30.73 17.8311Z" fill="#2990AB"/>
<path d="M30.5566 6.53101H6.99342C6.45337 6.53101 6.01556 6.97218 6.01556 7.5164V12.793C6.01556 13.3372 6.45337 13.7784 6.99342 13.7784H30.5566C31.0966 13.7784 31.5344 13.3372 31.5344 12.793V7.5164C31.5344 6.97218 31.0966 6.53101 30.5566 6.53101Z" fill="#2990AB"/>
<path d="M36.5655 23.5209V3.08203C36.5655 1.93771 35.635 1 34.4994 1H3.06611C1.93054 1 1 1.93771 1 3.08203V46.3121C1 47.4564 1.93054 48.3941 3.06611 48.3941H27.7964" stroke="#323233" stroke-width="2" stroke-miterlimit="10"/>
</svg>
